<svg id="visual" viewBox="0 0 900 600" width="900" height="600" xmlns="http://www.w3.org/2000/svg" xmlns:xlink="http://www.w3.org/1999/xlink" version="1.1"><rect x="0" y="0" width="900" height="600" fill="#048b70"></rect><path d="M0 377L15 385.2C30 393.3 60 409.7 90 414.8C120 420 150 414 180 406C210 398 240 388 270 392C300 396 330 414 360 409.2C390 404.3 420 376.7 450 375C480 373.3 510 397.7 540 420.8C570 444 600 466 630 464.2C660 462.3 690 436.7 720 419.8C750 403 780 395 810 391C840 387 870 387 885 387L900 387L900 601L885 601C870 601 840 601 810 601C780 601 750 601 720 601C690 601 660 601 630 601C600 601 570 601 540 601C510 601 480 601 450 601C420 601 390 601 360 601C330 601 300 601 270 601C240 601 210 601 180 601C150 601 120 601 90 601C60 601 30 601 15 601L0 601Z" fill="#fac57a" stroke-linecap="round" stroke-linejoin="miter"></path></svg>